<?xml version="1.0" encoding="UTF-8"?>
<svg id="Layer_2" data-name="Layer 2" xmlns="http://www.w3.org/2000/svg" viewBox="0 0 300.19 69.99">
  <defs>
    <style>
      .cls-1 {
        fill: #fffdf5;
      }

      .cls-2 {
        fill: #41b9c0;
      }
    </style>
  </defs>
  <g id="Layer_1-2" data-name="Layer 1">
    <g>
      <g>
        <path class="cls-1" d="M72.78,69.42c-1.02-.33-1.97-.82-2.82-1.47l1.19-1.79c.73.57,1.56.99,2.45,1.26.84.27,1.71.41,2.59.42,1.3,0,2.28-.23,2.96-.71,1.05-.86,1.33-2.35.65-3.53-.31-.41-.72-.75-1.19-.98-.76-.38-1.56-.71-2.37-.98l-.46-.16c-.95-.32-1.87-.71-2.76-1.18-.68-.37-1.27-.89-1.71-1.53-.46-.71-.68-1.54-.65-2.38-.03-.92.26-1.83.83-2.56.57-.71,1.32-1.25,2.18-1.56.93-.35,1.91-.52,2.9-.52,1.04,0,2.07.13,3.07.41,1.01.29,1.96.74,2.83,1.33l-1.14,1.79c-.71-.47-1.49-.83-2.3-1.1-.81-.23-1.65-.34-2.49-.33-.83-.03-1.66.17-2.38.6-.63.39-.99,1.1-.95,1.84,0,.4.1.8.31,1.14.28.38.65.68,1.08.89.69.37,1.41.67,2.15.92l.46.16c.99.33,1.96.72,2.9,1.18.74.38,1.38.93,1.87,1.6.55.79.83,1.73.78,2.69.03.99-.24,1.96-.78,2.78-.56.78-1.35,1.37-2.25,1.71-1.11.41-2.28.61-3.47.58-1.18.01-2.36-.17-3.49-.53Z"/>
        <path class="cls-1" d="M88.65,68.81c-1.23-.77-2.19-1.88-2.78-3.21-.65-1.51-.97-3.15-.93-4.79,0-2.02.38-3.71,1.14-5.06.69-1.28,1.74-2.33,3.03-3.01,1.3-.66,2.74-.99,4.2-.98,1.57-.05,3.12.35,4.47,1.15,1.23.77,2.19,1.88,2.78,3.21.65,1.51.97,3.15.94,4.79,0,2.02-.38,3.71-1.14,5.06-.69,1.28-1.74,2.33-3.03,3.01-1.3.66-2.74.99-4.2.98-1.57.05-3.12-.35-4.47-1.15ZM96.32,66.97c.87-.6,1.54-1.44,1.92-2.42.45-1.15.67-2.37.65-3.6.03-1.26-.18-2.51-.61-3.7-.36-.99-1-1.86-1.85-2.48-.92-.62-2.01-.93-3.11-.89-1.13-.04-2.25.27-3.21.88-.87.6-1.54,1.44-1.92,2.42-.44,1.15-.66,2.37-.63,3.6-.03,1.26.18,2.51.61,3.69.36.99,1,1.86,1.85,2.48.92.62,2.01.94,3.11.89,1.13.03,2.25-.28,3.2-.89h0Z"/>
        <path class="cls-1" d="M107.41,67.46h8.61v2.17h-11.1v-17.55h2.49v15.38Z"/>
        <path class="cls-1" d="M120.68,69c-1.05-.6-1.9-1.51-2.41-2.6-.54-1.18-.81-2.47-.78-3.77v-10.55h2.49v9.99c0,3.81,1.64,5.72,4.93,5.71,1.68,0,2.89-.48,3.64-1.45.75-.97,1.12-2.33,1.13-4.1v-10.16h2.49v10.45c0,1.72-.33,3.13-.98,4.23-.6,1.07-1.53,1.91-2.64,2.42-1.2.52-2.5.78-3.8.76-1.41.05-2.81-.27-4.06-.94Z"/>
        <path class="cls-1" d="M149.09,52.07v2.17h-6.07v15.38h-2.49v-15.38h-6.09v-2.17h14.65Z"/>
        <path class="cls-1" d="M151.79,69.62v-17.55h2.49v17.55h-2.49Z"/>
        <path class="cls-1" d="M161.44,68.81c-1.23-.77-2.19-1.88-2.78-3.21-.65-1.51-.97-3.15-.93-4.79,0-2.02.38-3.71,1.14-5.06.69-1.28,1.74-2.33,3.03-3.01,1.3-.66,2.74-.99,4.2-.98,1.57-.05,3.12.35,4.47,1.15,1.23.77,2.19,1.88,2.78,3.21.65,1.51.97,3.15.94,4.79,0,2.02-.38,3.71-1.14,5.06-.69,1.28-1.74,2.33-3.03,3.01-1.3.66-2.74.99-4.2.98-1.57.05-3.12-.35-4.47-1.15ZM169.11,66.97c.87-.6,1.54-1.44,1.92-2.42.45-1.15.67-2.37.65-3.6.03-1.26-.18-2.51-.61-3.7-.36-.99-1-1.86-1.85-2.48-.92-.62-2.01-.93-3.11-.89-1.13-.04-2.25.27-3.21.88-.87.6-1.54,1.44-1.92,2.42-.44,1.15-.66,2.37-.63,3.6-.03,1.26.18,2.51.61,3.69.36.99,1,1.86,1.85,2.48.92.62,2.01.94,3.11.89,1.13.03,2.25-.28,3.2-.89h0Z"/>
        <path class="cls-1" d="M192.12,52.07v17.55h-2.76l-7.72-11.37-.35-.5c-.1-.18-.21-.35-.33-.52-.19-.27-.35-.52-.49-.76s-.26-.47-.36-.7v13.86h-2.39v-17.55h2.63l7.93,11.62c.07.11.22.33.46.65.23.33.43.65.6.92.15.26.29.53.41.8v-13.99h2.37Z"/>
        <path class="cls-1" d="M197.97,69.42c-1.02-.33-1.97-.82-2.81-1.47l1.19-1.79c.73.57,1.56.99,2.45,1.26.84.27,1.72.41,2.6.42,1.3,0,2.29-.24,2.96-.71,1.05-.86,1.32-2.35.65-3.52-.31-.42-.72-.75-1.19-.98-.76-.38-1.56-.71-2.37-.98l-.46-.16c-.95-.32-1.88-.71-2.76-1.18-.68-.37-1.27-.89-1.71-1.53-.46-.71-.68-1.54-.65-2.38-.03-.92.26-1.83.83-2.56.57-.71,1.32-1.25,2.18-1.56.93-.35,1.91-.52,2.9-.52,1.04,0,2.07.13,3.08.41,1.01.29,1.96.74,2.83,1.33l-1.14,1.79c-.72-.47-1.49-.84-2.3-1.1-.81-.23-1.65-.34-2.49-.33-.84-.03-1.66.18-2.39.6-.63.39-.99,1.1-.95,1.84,0,.4.11.8.33,1.14.28.39.65.71,1.08.92.69.37,1.41.67,2.15.92l.46.16c.99.33,1.96.72,2.9,1.18.74.38,1.38.93,1.87,1.6.55.79.83,1.73.78,2.69.03.99-.24,1.96-.78,2.78-.56.78-1.35,1.37-2.25,1.71-1.11.41-2.28.61-3.47.58-1.2,0-2.39-.19-3.52-.57Z"/>
        <path class="cls-1" d="M231.54,59.9v8.56c-.96.47-1.97.84-3.01,1.12-1.07.26-2.17.38-3.27.37-1.93,0-3.52-.39-4.76-1.16-1.22-.75-2.18-1.87-2.74-3.2-.6-1.5-.9-3.1-.87-4.71,0-2.1.38-3.82,1.14-5.19.68-1.28,1.74-2.33,3.03-2.99,1.3-.64,2.74-.97,4.2-.95,1.06,0,2.12.13,3.14.41.95.27,1.86.67,2.71,1.19l-1.08,1.9c-.65-.41-1.34-.73-2.07-.96-.81-.25-1.66-.38-2.51-.37-2.04,0-3.53.61-4.48,1.83-.95,1.22-1.42,2.89-1.42,5.02,0,2.24.45,3.97,1.35,5.18s2.37,1.83,4.42,1.83c1.28,0,2.54-.23,3.74-.68v-5.09h-4.5l.27-2.11h6.72Z"/>
        <path class="cls-1" d="M248.33,69.46v.16h-2.87l-5.06-6.85h-2.6v6.85h-2.49v-17.55h5.71c1.19-.03,2.38.19,3.48.65.88.38,1.63,1.01,2.14,1.82.49.82.74,1.76.72,2.71,0,.79-.15,1.58-.48,2.3-.32.71-.81,1.34-1.42,1.83-.69.54-1.5.93-2.36,1.12l5.23,6.96ZM237.8,60.71h2.84c1.35,0,2.38-.29,3.08-.88.71-.62,1.09-1.53,1.04-2.48,0-1.03-.33-1.81-.96-2.36s-1.58-.81-2.83-.81h-3.17v6.53Z"/>
        <path class="cls-1" d="M253.34,68.81c-1.23-.77-2.19-1.88-2.78-3.21-.65-1.51-.97-3.15-.93-4.79,0-2.02.38-3.71,1.14-5.06.69-1.28,1.74-2.33,3.03-3.01,1.3-.66,2.74-.99,4.2-.98,1.57-.05,3.12.35,4.47,1.15,1.23.77,2.19,1.88,2.78,3.21.65,1.51.97,3.15.93,4.79,0,2.02-.38,3.71-1.14,5.06-.69,1.28-1.74,2.33-3.03,3.01-1.3.66-2.74.99-4.2.98-1.57.05-3.12-.35-4.47-1.15ZM261.02,66.97c.87-.6,1.54-1.44,1.92-2.42.45-1.15.67-2.37.65-3.6.03-1.26-.18-2.51-.61-3.7-.36-.99-1-1.86-1.85-2.48-.92-.62-2.01-.93-3.11-.89-1.13-.04-2.25.27-3.21.88-.87.6-1.54,1.44-1.92,2.42-.45,1.15-.67,2.37-.65,3.6-.03,1.26.18,2.51.61,3.69.36.99,1,1.86,1.85,2.48.92.62,2.01.92,3.11.88,1.14.04,2.26-.26,3.21-.88h0Z"/>
        <path class="cls-1" d="M272.38,69c-1.05-.6-1.9-1.51-2.41-2.6-.54-1.18-.8-2.47-.77-3.77v-10.55h2.49v9.99c0,3.81,1.64,5.72,4.93,5.71,1.68,0,2.89-.48,3.64-1.45s1.12-2.33,1.12-4.1v-10.16h2.49v10.45c0,1.72-.33,3.13-.98,4.23-.6,1.07-1.53,1.91-2.64,2.42-1.2.52-2.5.78-3.81.76-1.42.06-2.82-.27-4.07-.94Z"/>
        <path class="cls-1" d="M297.27,52.74c.91.38,1.67,1.04,2.19,1.87.5.85.75,1.82.73,2.8.01,1.01-.25,2.01-.75,2.9-.53.9-1.31,1.62-2.25,2.07-1.15.55-2.42.81-3.7.77h-3.14v6.47h-2.49v-17.55h5.86c1.21-.03,2.42.19,3.54.66ZM296.53,60.12c.73-.66,1.13-1.62,1.07-2.6,0-1.08-.33-1.91-.98-2.48s-1.63-.86-2.93-.86h-3.33v6.85h2.95c1.43,0,2.5-.3,3.21-.92Z"/>
      </g>
      <g>
        <path class="cls-2" d="M94.82,6.6h-16.94v9.3h14.64l-.93,6.54h-13.71v14.75h-7.92V0h24.86v6.6Z"/>
        <path class="cls-2" d="M116.52,0l13.38,36.74v.46h-8.67l-2.99-8.9h-13.78l-2.93,8.9h-8.55v-.46L106.36,0h10.16ZM106.65,21.76h9.42l-4.77-14.18-4.65,14.18Z"/>
        <path class="cls-2" d="M164.23,36.74v.46h-9.11l-9.35-13.55h-3.13v13.55h-7.92V0h12.44c3.29,0,6.04.51,8.24,1.52,2.2,1.02,3.84,2.39,4.91,4.13,1.08,1.79,1.64,3.85,1.61,5.94,0,2.6-.65,4.85-1.95,6.75-1.3,1.89-3.22,3.3-5.74,4.23l10,14.17ZM142.64,17.51h3.58c2.35,0,4.15-.44,5.42-1.32,1.27-.88,1.91-2.34,1.91-4.36,0-1.76-.57-3.08-1.7-3.96-1.13-.88-2.72-1.32-4.75-1.3h-4.46v10.95Z"/>
        <path class="cls-2" d="M207.98,22.62v6.51h-4.48v8.1h-7.92v-8.1h-16.48v-3.69L189.14,0h8.84l-9.64,22.62h7.23l1.55-9.19h6.37v9.19h4.48Z"/>
      </g>
      <g>
        <g>
          <rect class="cls-1" x="0" y=".01" width="48.97" height="7" rx="3.5" ry="3.5"/>
          <path class="cls-1" d="M48.97,16.48v51.02c0,1.37-1.11,2.47-2.47,2.47h-2.05c-1.37,0-2.47-1.11-2.47-2.47h0V23.47c0-1.37-1.11-2.47-2.47-2.47H2.47C1.11,21,0,19.9,0,18.53c0,0,0,0,0,0v-2.05c0-1.36,1.1-2.47,2.47-2.47,0,0,0,0,0,0h44.03c1.37,0,2.47,1.11,2.47,2.47h0Z"/>
        </g>
        <g>
          <rect class="cls-2" x="0" y="24.5" width="7" height="7" rx="3.5" ry="3.5"/>
          <path class="cls-2" d="M34.98,37.47v30.03c0,1.37-1.11,2.47-2.47,2.47h-2.05c-1.37,0-2.47-1.11-2.47-2.47h0v-23.04c0-1.36-1.1-2.47-2.47-2.47H2.47C1.11,41.99,0,40.88,0,39.52c0,0,0,0,0,0v-2.05c0-1.36,1.1-2.47,2.47-2.47h30.04c1.37,0,2.47,1.11,2.47,2.47h0Z"/>
          <path class="cls-2" d="M24.03,50.89l-18.36,18.36c-.46.46-1.09.72-1.75.72h-1.45c-1.36,0-2.47-1.11-2.47-2.47v-1.45c0-.66.27-1.29.74-1.75l18.36-18.36c.96-.97,2.53-.97,3.49,0h0s1.45,1.45,1.45,1.45c.96.97.96,2.53,0,3.49,0,0,0,0,0,0Z"/>
        </g>
      </g>
    </g>
  </g>
</svg>