<?xml version="1.0" encoding="UTF-8"?>
<svg id="Layer_2" data-name="Layer 2" xmlns="http://www.w3.org/2000/svg" viewBox="0 0 132.63 122.5">
  <defs>
    <style>
      .cls-1 {
        fill: #094d68;
      }

      .cls-2 {
        fill: #41b9c0;
      }
    </style>
  </defs>
  <g id="Layer_1-2" data-name="Layer 1">
    <g>
      <path class="cls-1" d="M1.63,122.18c-.58-.19-1.14-.48-1.63-.85l.69-1.03c.42.33.9.57,1.42.73.48.16.98.24,1.49.24.75,0,1.32-.13,1.71-.41s.58-.67.58-1.23c.01-.28-.07-.56-.21-.79-.19-.24-.41-.44-.69-.57-.44-.22-.9-.41-1.36-.57l-.26-.09c-.54-.19-1.07-.41-1.59-.67-.4-.21-.73-.52-.98-.89-.26-.41-.4-.89-.37-1.38-.01-.53.15-1.06.48-1.47s.77-.71,1.26-.9c.53-.2,1.1-.3,1.67-.29.6,0,1.19.08,1.77.24.58.17,1.12.42,1.63.77l-.66,1.03c-.41-.26-.86-.48-1.32-.64-.46-.13-.95-.2-1.43-.2-.48-.01-.95.11-1.38.34-.36.22-.54.58-.54,1.06,0,.22.05.46.17.66.16.22.37.41.62.53.4.21.81.38,1.24.53l.26.09c.57.19,1.12.42,1.67.69.42.22.79.54,1.07.93.3.4.45.91.45,1.55.01.57-.13,1.12-.45,1.6-.33.45-.78.79-1.3.98-.64.24-1.31.36-2,.33-.69,0-1.36-.11-2.01-.32Z"/>
      <path class="cls-1" d="M10.77,121.82c-.7-.44-1.27-1.08-1.6-1.85-.37-.87-.56-1.81-.54-2.75,0-1.16.22-2.13.65-2.91.4-.74,1.01-1.34,1.75-1.73.75-.38,1.57-.57,2.42-.56,1.01,0,1.87.22,2.57.66.7.44,1.27,1.08,1.6,1.85.37.87.56,1.81.54,2.77,0,1.16-.22,2.14-.66,2.91-.4.74-1.01,1.34-1.75,1.73-.75.38-1.57.57-2.42.56-.99-.01-1.85-.24-2.55-.67ZM15.19,120.76c.5-.34.89-.83,1.11-1.4.25-.66.38-1.36.37-2.08.01-.73-.11-1.44-.36-2.13-.21-.57-.58-1.07-1.07-1.43-.48-.34-1.07-.52-1.8-.52s-1.35.17-1.85.5c-.5.34-.89.83-1.11,1.39-.25.66-.38,1.36-.37,2.08-.01.73.11,1.44.36,2.13.21.57.58,1.07,1.07,1.43.48.34,1.07.52,1.8.52.74.01,1.36-.16,1.85-.49h0Z"/>
      <path class="cls-1" d="M21.58,121.04h4.96v1.24h-6.4v-10.11h1.43v8.86Z"/>
      <path class="cls-1" d="M29.21,121.94c-.61-.34-1.1-.87-1.39-1.51-.3-.67-.46-1.42-.45-2.17v-6.07h1.44v5.76c0,2.2.95,3.29,2.84,3.29.97,0,1.67-.28,2.1-.83s.65-1.35.65-2.37v-5.85h1.44v6.02c0,.99-.19,1.8-.56,2.45-.34.61-.87,1.1-1.52,1.39-.69.3-1.44.45-2.2.44-.95,0-1.73-.19-2.37-.54Z"/>
      <path class="cls-1" d="M45.58,112.19v1.24h-3.49v8.86h-1.43v-8.86h-3.51v-1.24h8.43Z"/>
      <path class="cls-1" d="M47.14,122.3v-10.11h1.44v10.11h-1.44Z"/>
      <path class="cls-1" d="M52.7,121.82c-.7-.44-1.27-1.08-1.6-1.85-.37-.87-.56-1.81-.54-2.77,0-1.16.21-2.13.66-2.91.4-.74,1.01-1.34,1.75-1.73.75-.38,1.57-.57,2.42-.56,1.01,0,1.87.22,2.58.66.7.44,1.27,1.08,1.6,1.85.37.87.56,1.81.54,2.75,0,1.16-.21,2.14-.66,2.91-.4.74-1.01,1.34-1.75,1.73-.75.38-1.57.57-2.42.56-1.02.01-1.88-.21-2.58-.65ZM57.11,120.76c.5-.34.89-.83,1.11-1.39.25-.66.38-1.36.37-2.08.01-.73-.11-1.44-.34-2.13-.21-.57-.58-1.07-1.07-1.43-.48-.34-1.07-.52-1.8-.52s-1.35.17-1.85.5c-.5.34-.89.83-1.11,1.39-.25.66-.38,1.36-.37,2.08-.01.73.11,1.44.36,2.13.21.57.58,1.07,1.07,1.43.48.34,1.07.52,1.8.52s1.35-.17,1.84-.5h0Z"/>
      <path class="cls-1" d="M70.37,112.19v10.11h-1.59l-4.46-6.55-.2-.29c-.05-.11-.12-.2-.2-.29-.11-.16-.2-.3-.28-.44s-.15-.26-.21-.41v7.99h-1.38v-10.11h1.51l4.56,6.69c.04.07.13.19.26.38s.25.37.34.53c.09.15.17.3.24.46v-8.07h1.39Z"/>
      <path class="cls-1" d="M73.73,122.18c-.58-.19-1.14-.48-1.63-.85l.69-1.03c.42.33.9.57,1.42.73.48.16.99.24,1.49.24.75,0,1.32-.13,1.71-.41s.58-.67.58-1.23c.01-.28-.07-.56-.21-.79-.19-.24-.41-.44-.69-.57-.44-.22-.9-.41-1.36-.57l-.26-.09c-.54-.19-1.07-.41-1.59-.67-.4-.21-.73-.52-.98-.89-.26-.41-.4-.89-.37-1.38-.01-.53.15-1.06.48-1.47s.77-.71,1.26-.9c.53-.2,1.1-.3,1.67-.29.6,0,1.19.08,1.76.24.58.17,1.12.42,1.63.77l-.66,1.03c-.41-.26-.86-.48-1.32-.64-.46-.13-.95-.2-1.43-.2-.48-.01-.95.11-1.38.34-.36.22-.54.58-.54,1.06,0,.22.05.46.17.66.16.22.37.41.62.53.4.21.81.38,1.24.53l.26.09c.57.19,1.12.41,1.67.67.42.22.79.54,1.07.93.3.4.45.91.45,1.55.01.57-.13,1.12-.45,1.6-.33.45-.78.79-1.3.98-.64.24-1.31.36-2,.33-.67.01-1.35-.09-2-.3Z"/>
      <path class="cls-1" d="M93.07,116.7v4.93c-.56.26-1.14.49-1.73.65-.62.15-1.24.22-1.88.21-1.11,0-2.02-.22-2.75-.67-.7-.44-1.26-1.07-1.57-1.84-.34-.86-.52-1.79-.5-2.71,0-1.2.22-2.2.66-2.99.4-.74,1.01-1.34,1.75-1.72.75-.37,1.57-.56,2.41-.56.61,0,1.22.08,1.81.24.56.16,1.07.38,1.56.69l-.62,1.08c-.37-.24-.77-.42-1.19-.56-.46-.15-.95-.21-1.44-.21-1.18,0-2.04.36-2.58,1.06s-.82,1.67-.82,2.9c0,1.3.26,2.29.78,2.99s1.36,1.06,2.54,1.06c.74,0,1.47-.13,2.16-.4v-2.94h-2.59l.16-1.22h3.86Z"/>
      <path class="cls-1" d="M102.74,122.21v.09h-1.65l-2.91-3.94h-1.51v3.94h-1.43v-10.11h3.29c.69-.01,1.38.11,2.01.37.5.21.94.58,1.23,1.05.28.48.42,1.01.41,1.56,0,.45-.09.91-.28,1.32-.19.41-.46.78-.82,1.06-.4.32-.86.53-1.36.65l3.02,4.01ZM96.67,117.16h1.64c.78,0,1.38-.17,1.77-.5s.6-.82.6-1.43-.19-1.05-.56-1.36-.91-.46-1.63-.46h-1.83v3.76h0Z"/>
      <path class="cls-1" d="M105.63,121.82c-.7-.44-1.27-1.08-1.6-1.85-.37-.87-.56-1.81-.54-2.77,0-1.16.22-2.13.66-2.91.4-.74,1.01-1.34,1.75-1.73.75-.38,1.57-.57,2.42-.56,1.01,0,1.87.22,2.58.66.7.44,1.27,1.08,1.6,1.85.37.87.56,1.81.54,2.77,0,1.16-.22,2.14-.66,2.91-.4.74-.99,1.34-1.73,1.72-.75.38-1.57.57-2.42.56-1.02.01-1.88-.21-2.59-.65ZM110.05,120.76c.5-.34.89-.83,1.11-1.4.25-.66.38-1.36.37-2.08.01-.73-.11-1.44-.36-2.13-.21-.57-.58-1.07-1.07-1.43-.48-.34-1.07-.52-1.8-.52s-1.35.17-1.85.5c-.5.34-.89.83-1.11,1.39-.25.66-.38,1.36-.37,2.08-.01.73.11,1.44.36,2.13.21.57.58,1.07,1.07,1.43.48.34,1.07.52,1.8.52.74.01,1.36-.16,1.85-.49h0Z"/>
      <path class="cls-1" d="M116.6,121.94c-.61-.34-1.1-.87-1.39-1.51-.3-.67-.46-1.42-.45-2.17v-6.07h1.43v5.76c0,2.2.95,3.29,2.84,3.29.97,0,1.67-.28,2.1-.83s.65-1.35.65-2.37v-5.85h1.44v6.02c0,.99-.19,1.8-.56,2.45-.34.61-.87,1.1-1.52,1.39-.69.3-1.44.45-2.2.44-.95,0-1.73-.19-2.35-.54Z"/>
      <path class="cls-1" d="M130.94,112.57c.52.22.97.6,1.27,1.07.29.49.44,1.05.42,1.61.01.58-.15,1.16-.42,1.67-.3.52-.75.93-1.3,1.19-.58.29-1.28.45-2.13.45h-1.81v3.73h-1.44v-10.11h3.37c.69-.01,1.39.11,2.04.38ZM130.5,116.82c.41-.36.62-.85.62-1.49s-.19-1.1-.57-1.43-.94-.49-1.69-.49h-1.91v3.94h1.69c.83,0,1.44-.17,1.85-.53h0Z"/>
      <path class="cls-2" d="M41.44,87.57h-9.55v5.24h8.26l-.53,3.69h-7.73v8.31h-4.46v-20.96h14.01v3.72Z"/>
      <path class="cls-2" d="M53.66,83.85l7.54,20.7v.26h-4.9l-1.68-5.01h-7.77l-1.65,5.01h-4.82v-.26l7.54-20.7h5.73ZM48.09,96.12h5.31l-2.69-7.99-2.62,7.99Z"/>
      <path class="cls-2" d="M80.54,104.56v.26h-5.13l-5.27-7.63h-1.76v7.63h-4.46v-20.97h7.01c1.85,0,3.4.29,4.64.86,1.24.57,2.17,1.35,2.77,2.33.61,1.01.93,2.17.9,3.35,0,1.47-.37,2.74-1.1,3.8-.73,1.07-1.81,1.87-3.24,2.38l5.64,7.99ZM68.37,93.72h2.01c1.32,0,2.34-.25,3.06-.74.71-.49,1.07-1.31,1.07-2.46,0-.99-.32-1.73-.95-2.24-.64-.5-1.53-.74-2.67-.74h-2.51v6.18Z"/>
      <path class="cls-2" d="M105.19,96.61v3.65h-2.53v4.56h-4.47v-4.56h-9.29v-2.08l5.66-14.33h4.99l-5.44,12.75h4.07l.87-5.17h3.59v5.17h2.54Z"/>
      <path class="cls-1" d="M44.33,0h43.96c1.36,0,2.47,1.11,2.47,2.47v2.04c0,1.36-1.11,2.47-2.47,2.47h-43.96c-1.36,0-2.47-1.11-2.47-2.47v-2.04c-.01-1.36,1.1-2.47,2.47-2.47Z"/>
      <path class="cls-1" d="M90.77,16.46v50.95c0,1.36-1.11,2.47-2.47,2.47h-2.04c-1.36,0-2.49-1.11-2.49-2.47h0V23.44c0-1.36-1.11-2.47-2.47-2.47h-36.96c-1.36,0-2.47-1.11-2.47-2.47v-2.04c0-1.36,1.11-2.47,2.47-2.47h43.96c1.36-.01,2.47,1.1,2.47,2.47Z"/>
      <path class="cls-2" d="M44.33,24.46h2.04c1.36,0,2.47,1.11,2.47,2.47v2.02c0,1.36-1.11,2.47-2.47,2.47h-2.04c-1.36,0-2.47-1.11-2.47-2.47v-2.04c-.01-1.36,1.1-2.46,2.47-2.46Z"/>
      <path class="cls-2" d="M76.79,37.41v29.98c0,1.36-1.11,2.47-2.47,2.47h-2.02c-1.36,0-2.47-1.11-2.47-2.47v-22.99c0-1.36-1.11-2.47-2.47-2.47h-23.01c-1.36,0-2.47-1.11-2.47-2.47v-2.02c0-1.36,1.11-2.47,2.47-2.47h29.98c1.36-.01,2.47,1.1,2.47,2.46Z"/>
      <path class="cls-2" d="M65.85,50.82l-18.32,18.34c-.46.46-1.1.73-1.75.73h-1.44c-1.36,0-2.47-1.11-2.47-2.47h0v-1.43c0-.66.26-1.28.73-1.75l18.34-18.34c.97-.97,2.54-.97,3.51,0h0l1.44,1.44c.97.97.98,2.53.01,3.49-.03-.01-.03,0-.04-.01Z"/>
    </g>
  </g>
</svg>