<?xml version="1.0" encoding="UTF-8"?>
<svg id="Layer_2" data-name="Layer 2" xmlns="http://www.w3.org/2000/svg" viewBox="0 0 299.85 70">
  <defs>
    <style>
      .cls-1 {
        fill: #094d68;
      }

      .cls-2 {
        fill: #41b9c0;
      }
    </style>
  </defs>
  <g id="Layer_1-2" data-name="Layer 1">
    <g>
      <g>
        <path class="cls-1" d="M72.7,69.37c-1.01-.33-1.96-.83-2.82-1.48l1.19-1.78c.74.56,1.57.98,2.43,1.25.83.27,1.69.42,2.58.42,1.31,0,2.29-.24,2.97-.71s1.01-1.19,1.01-2.14c.03-.47-.12-.98-.36-1.37-.33-.42-.71-.74-1.19-.98-.77-.39-1.57-.71-2.37-.98l-.45-.15c-.95-.33-1.87-.71-2.76-1.19-.68-.36-1.28-.89-1.69-1.51-.45-.71-.68-1.54-.65-2.37-.03-.92.27-1.84.83-2.55.56-.71,1.34-1.25,2.17-1.54.92-.36,1.9-.53,2.91-.5,1.04,0,2.08.15,3.09.42,1.01.3,1.96.74,2.82,1.34l-1.13,1.78c-.71-.47-1.48-.83-2.29-1.1-.8-.24-1.63-.36-2.49-.33-.83-.03-1.66.18-2.37.59-.62.39-.98,1.1-.95,1.84,0,.42.09.8.3,1.13.27.39.62.71,1.07.92.68.36,1.42.68,2.14.92l.45.15c.98.33,1.96.71,2.88,1.19.74.39,1.37.92,1.87,1.6.56.77.83,1.72.77,2.7.03.98-.24,1.96-.77,2.76-.56.77-1.34,1.37-2.26,1.69-1.1.42-2.29.62-3.47.59-1.16-.03-2.32-.21-3.44-.59Z"/>
        <path class="cls-1" d="M88.52,68.75c-1.22-.77-2.2-1.87-2.76-3.21-.65-1.51-.98-3.15-.92-4.78,0-2.02.39-3.71,1.13-5.05.68-1.28,1.75-2.32,3.03-3,1.31-.65,2.73-.98,4.19-.98,1.57-.06,3.12.36,4.45,1.16,1.22.77,2.2,1.87,2.76,3.21.65,1.51.98,3.15.92,4.78,0,2.02-.39,3.71-1.13,5.05-.68,1.28-1.75,2.32-3.03,3-1.31.65-2.73.98-4.19.98-1.54.03-3.09-.36-4.45-1.16ZM96.21,66.91c.86-.59,1.54-1.45,1.93-2.4.45-1.16.65-2.37.62-3.59.03-1.25-.18-2.52-.59-3.68-.36-.98-1.01-1.84-1.84-2.46-.92-.62-2.02-.92-3.12-.89-1.13-.03-2.26.27-3.21.89-.86.59-1.54,1.45-1.93,2.43-.45,1.16-.65,2.37-.62,3.59-.03,1.25.18,2.49.59,3.68.36.98,1.01,1.84,1.84,2.46.92.62,2.02.92,3.12.89,1.13.03,2.26-.3,3.21-.92Z"/>
        <path class="cls-1" d="M107.28,67.41h8.61v2.17h-11.1v-17.51h2.49v15.35Z"/>
        <path class="cls-1" d="M120.52,68.96c-1.04-.59-1.9-1.51-2.4-2.61-.53-1.19-.8-2.46-.77-3.77v-10.51h2.49v9.97c0,3.8,1.63,5.7,4.93,5.7,1.66,0,2.88-.47,3.62-1.45.74-.95,1.13-2.32,1.13-4.1v-10.15h2.49v10.45c0,1.72-.33,3.12-.98,4.22-.59,1.07-1.51,1.9-2.64,2.43-1.19.53-2.49.77-3.8.74-1.63.03-2.97-.3-4.07-.92Z"/>
        <path class="cls-1" d="M148.9,52.07v2.17h-6.06v15.38h-2.49v-15.38h-6.09v-2.17h14.63Z"/>
        <path class="cls-1" d="M151.6,69.58v-17.51h2.49v17.51h-2.49Z"/>
        <path class="cls-1" d="M161.25,68.75c-1.22-.77-2.2-1.87-2.76-3.21-.65-1.51-.98-3.15-.95-4.78,0-2.02.39-3.71,1.13-5.05.68-1.28,1.75-2.32,3.03-3,1.31-.65,2.73-1.01,4.19-.98,1.57-.06,3.12.36,4.45,1.16,1.22.77,2.2,1.87,2.76,3.21.65,1.51.98,3.15.92,4.78,0,2.02-.39,3.71-1.13,5.05-.68,1.28-1.75,2.32-3.03,3-1.31.65-2.73.98-4.19.98-1.54.03-3.09-.36-4.42-1.16ZM168.91,66.91c.86-.59,1.54-1.42,1.93-2.4.45-1.16.65-2.37.62-3.59.03-1.25-.18-2.52-.59-3.68-.36-.98-1.01-1.84-1.84-2.46-.92-.62-1.99-.92-3.12-.89-1.13-.03-2.26.27-3.21.89-.86.59-1.54,1.45-1.93,2.43-.45,1.16-.65,2.37-.62,3.59-.03,1.25.18,2.49.59,3.68.36.98,1.01,1.84,1.84,2.46.92.62,2.02.92,3.12.89,1.13.03,2.26-.3,3.21-.92h0Z"/>
        <path class="cls-1" d="M191.88,52.07v17.51h-2.76l-7.72-11.37-.36-.5c-.03-.06-.15-.24-.33-.5s-.36-.53-.47-.77-.27-.47-.36-.71v13.86h-2.37v-17.51h2.61l7.93,11.61c.06.12.24.33.45.65s.45.62.59.92c.15.27.3.53.42.8v-13.98h2.37Z"/>
        <path class="cls-1" d="M197.73,69.37c-1.01-.33-1.96-.83-2.82-1.48l1.19-1.78c.74.56,1.57.98,2.43,1.25.83.27,1.69.42,2.58.42,1.31,0,2.29-.24,2.97-.71s1.01-1.19,1.01-2.14c.03-.47-.12-.98-.36-1.37-.3-.42-.71-.74-1.19-.98-.77-.39-1.57-.71-2.37-.98l-.45-.15c-.95-.33-1.87-.71-2.76-1.19-.68-.36-1.28-.89-1.69-1.51-.45-.71-.68-1.54-.65-2.37-.03-.92.27-1.84.83-2.55.56-.71,1.34-1.25,2.17-1.54.92-.36,1.9-.53,2.91-.5,1.04,0,2.08.12,3.06.42,1.01.3,1.96.74,2.82,1.34l-1.13,1.78c-.71-.47-1.48-.83-2.29-1.1-.8-.24-1.63-.36-2.49-.33-.83-.03-1.66.18-2.37.59-.62.39-.98,1.1-.95,1.84,0,.42.09.8.3,1.13.27.39.65.71,1.07.92.68.36,1.4.68,2.14.92l.45.15c.98.33,1.96.71,2.91,1.19.74.39,1.37.92,1.87,1.6.56.77.83,1.72.77,2.7.03.98-.24,1.96-.8,2.79-.56.77-1.34,1.37-2.26,1.69-1.1.42-2.29.62-3.47.59-1.13-.06-2.32-.27-3.41-.62Z"/>
        <path class="cls-1" d="M231.25,59.87v8.55c-.95.47-1.96.83-3,1.13-1.07.27-2.17.39-3.27.36-1.93,0-3.5-.39-4.75-1.16-1.22-.74-2.17-1.87-2.73-3.21-.59-1.48-.89-3.09-.86-4.72,0-2.08.39-3.83,1.13-5.17.68-1.28,1.75-2.32,3.03-3,1.31-.65,2.73-.95,4.19-.95,1.07,0,2.11.12,3.15.42.95.27,1.87.68,2.7,1.19l-1.1,1.9c-.65-.42-1.34-.74-2.08-.95-.8-.27-1.66-.39-2.49-.36-2.05,0-3.53.62-4.48,1.81-.95,1.22-1.42,2.88-1.42,5.02s.45,3.95,1.37,5.17c.89,1.22,2.37,1.81,4.39,1.81,1.28,0,2.52-.24,3.74-.68v-5.05h-4.48l.27-2.11h6.71Z"/>
        <path class="cls-1" d="M248.02,69.4v.15h-2.88l-5.05-6.83h-2.61v6.86h-2.49v-17.51h5.7c1.19-.03,2.37.18,3.47.65.89.39,1.63,1.01,2.14,1.81.47.8.74,1.75.71,2.7,0,.8-.15,1.57-.47,2.29s-.8,1.34-1.42,1.81c-.68.53-1.48.92-2.35,1.13l5.25,6.95ZM237.51,60.68h2.85c1.37,0,2.37-.3,3.06-.89.71-.62,1.1-1.54,1.04-2.46,0-1.04-.33-1.81-.95-2.35-.65-.53-1.57-.8-2.82-.8h-3.18v6.5h0Z"/>
        <path class="cls-1" d="M253.03,68.75c-1.22-.77-2.2-1.9-2.79-3.21-.65-1.51-.98-3.15-.92-4.78,0-2.02.39-3.71,1.13-5.05.68-1.28,1.75-2.32,3.03-3,1.31-.65,2.73-.98,4.19-.98,1.57-.06,3.12.36,4.45,1.16,1.22.77,2.2,1.87,2.76,3.21.65,1.51.98,3.15.92,4.78,0,2.02-.39,3.71-1.13,5.05-.68,1.28-1.75,2.32-3.03,3-1.31.65-2.73.98-4.19.98-1.54.03-3.09-.36-4.42-1.16ZM260.69,66.91c.86-.59,1.54-1.45,1.93-2.4.45-1.16.65-2.37.62-3.59.03-1.25-.18-2.52-.59-3.68-.36-.98-1.01-1.84-1.84-2.46-.92-.62-2.02-.92-3.12-.89-1.13-.03-2.26.27-3.21.89-.86.59-1.54,1.45-1.93,2.43-.45,1.16-.65,2.37-.62,3.59-.03,1.25.18,2.49.59,3.68.36.98,1.01,1.84,1.84,2.46.92.62,2.02.92,3.12.89,1.13.03,2.26-.3,3.21-.92Z"/>
        <path class="cls-1" d="M272.03,68.96c-1.07-.59-1.9-1.51-2.4-2.61-.53-1.19-.8-2.46-.77-3.77v-10.51h2.49v9.97c0,3.8,1.63,5.7,4.93,5.7,1.69,0,2.88-.47,3.65-1.45.74-.95,1.13-2.35,1.13-4.1v-10.15h2.49v10.45c0,1.72-.33,3.12-.98,4.22-.59,1.07-1.51,1.9-2.64,2.43-1.19.53-2.49.77-3.8.74-1.66.03-3-.3-4.1-.92Z"/>
        <path class="cls-1" d="M296.91,52.72c.89.39,1.66,1.04,2.2,1.87.5.86.74,1.81.74,2.79s-.24,2.02-.74,2.91c-.53.89-1.31,1.63-2.26,2.08-1.16.53-2.4.8-3.68.77h-3.15v6.47h-2.49v-17.51h5.85c1.19-.06,2.4.15,3.53.62ZM296.17,60.08c.71-.62,1.07-1.48,1.07-2.61,0-1.07-.33-1.9-.98-2.46s-1.63-.86-2.94-.86h-3.3v6.86h2.94c1.4,0,2.46-.3,3.21-.92Z"/>
      </g>
      <g>
        <path class="cls-2" d="M94.7,6.62h-16.92v9.29h14.63l-.92,6.53h-13.71v14.72h-7.9V.03h24.82v6.59Z"/>
        <path class="cls-2" d="M116.37.03l13.36,36.69v.47h-8.64l-2.97-8.88h-13.77l-2.94,8.88h-8.55v-.47L106.21.03h10.15ZM106.51,21.76h9.41l-4.75-14.16-4.66,14.16Z"/>
        <path class="cls-2" d="M164.04,36.72v.47h-9.11l-9.32-13.54h-3.12v13.54h-7.9V.03h12.44c3.3,0,6.03.5,8.22,1.51s3.83,2.4,4.9,4.13c1.1,1.78,1.63,3.86,1.6,5.94,0,2.61-.65,4.84-1.96,6.74-1.31,1.9-3.21,3.3-5.73,4.22l9.97,14.16ZM142.46,17.51h3.56c2.35,0,4.16-.45,5.4-1.31,1.28-.89,1.9-2.35,1.9-4.36,0-1.75-.56-3.09-1.69-3.95s-2.7-1.31-4.75-1.31h-4.45l.03,10.92Z"/>
        <path class="cls-2" d="M207.74,22.62v6.47h-4.48v8.07h-7.93v-8.07h-16.45v-3.68L188.92,0h8.85l-9.65,22.59h7.21l1.54-9.17h6.38v9.17l4.48.03Z"/>
      </g>
      <g>
        <g>
          <path class="cls-1" d="M2.46.03h43.96c1.37,0,2.46,1.1,2.46,2.46v2.05c0,1.37-1.1,2.46-2.46,2.46H2.46c-1.37,0-2.46-1.1-2.46-2.46v-2.05C0,1.13,1.1.03,2.46.03Z"/>
          <path class="cls-1" d="M48.92,16.48v50.97c0,1.37-1.1,2.46-2.46,2.46h-2.05c-1.37,0-2.46-1.1-2.46-2.46h0V23.45c0-1.37-1.1-2.46-2.46-2.46H2.46c-1.37,0-2.46-1.1-2.46-2.46v-2.05c0-1.37,1.1-2.46,2.46-2.46h43.96c1.37,0,2.49,1.1,2.49,2.46h0Z"/>
        </g>
        <g>
          <path class="cls-2" d="M2.46,24.49h2.05c1.37,0,2.46,1.1,2.46,2.46v2.05c0,1.37-1.1,2.46-2.46,2.46h-2.05c-1.37,0-2.46-1.1-2.46-2.46v-2.05c0-1.37,1.1-2.46,2.46-2.46Z"/>
          <path class="cls-2" d="M34.94,37.43v29.98c0,1.37-1.1,2.46-2.46,2.46h-2.05c-1.37,0-2.46-1.1-2.46-2.46h0v-23.01c0-1.37-1.1-2.46-2.46-2.46H2.46c-1.37,0-2.46-1.1-2.46-2.46h0v-2.05c0-1.37,1.1-2.46,2.46-2.46h30.01c1.37,0,2.46,1.1,2.46,2.46Z"/>
          <path class="cls-2" d="M24.02,50.85l-18.35,18.35c-.47.47-1.1.71-1.75.71h-1.45c-1.37,0-2.46-1.1-2.46-2.46v-1.45c0-.65.27-1.28.71-1.75l18.35-18.35c.95-.95,2.52-.98,3.5,0h0l1.45,1.45c.95.98.95,2.52,0,3.5h0Z"/>
        </g>
      </g>
    </g>
  </g>
</svg>