<?xml version="1.0" encoding="UTF-8"?>
<svg id="Layer_2" data-name="Layer 2" xmlns="http://www.w3.org/2000/svg" viewBox="0 0 132.62 122.5">
  <defs>
    <style>
      .cls-1 {
        fill: #fffdf5;
      }

      .cls-2 {
        fill: #41b9c0;
      }
    </style>
  </defs>
  <g id="Layer_1-2" data-name="Layer 1">
    <g>
      <g>
        <path class="cls-1" d="M1.62,122.19c-.59-.19-1.13-.48-1.62-.85l.69-1.03c.42.33.9.57,1.41.73.48.15.98.24,1.49.24.75,0,1.32-.13,1.71-.4s.58-.68.58-1.23c.01-.28-.06-.56-.21-.79-.18-.24-.42-.44-.69-.57-.44-.22-.9-.41-1.37-.57l-.26-.09c-.55-.18-1.08-.41-1.59-.68-.39-.21-.73-.51-.98-.88-.26-.41-.39-.89-.37-1.37-.02-.53.15-1.05.47-1.47.33-.41.76-.72,1.26-.9.53-.2,1.1-.3,1.67-.3.6,0,1.19.08,1.77.23.58.17,1.13.43,1.63.76l-.66,1.03c-.41-.27-.86-.48-1.32-.63-.47-.14-.95-.2-1.44-.19-.48-.02-.96.1-1.37.34-.36.23-.55.58-.55,1.06,0,.23.06.46.18.65.16.22.38.41.62.53.4.21.81.39,1.24.53l.26.09c.57.19,1.13.42,1.67.68.43.22.79.54,1.08.93.3.4.45.92.45,1.55.02.57-.14,1.13-.45,1.6-.32.45-.78.79-1.3.98-.64.24-1.32.35-2,.34-.68,0-1.36-.1-2.01-.31Z"/>
        <path class="cls-1" d="M10.76,121.83c-.71-.44-1.26-1.09-1.6-1.85-.38-.87-.56-1.81-.54-2.76,0-1.16.22-2.13.65-2.91.4-.74,1-1.34,1.75-1.73.75-.38,1.58-.57,2.42-.56,1.01,0,1.87.22,2.57.66.71.44,1.27,1.09,1.6,1.85.37.87.56,1.81.54,2.76,0,1.17-.22,2.14-.66,2.92-.4.74-1,1.34-1.75,1.73-.75.38-1.58.57-2.42.56-1,0-1.86-.23-2.57-.67ZM15.19,120.77c.5-.35.89-.83,1.11-1.4.26-.66.38-1.37.37-2.07.01-.73-.1-1.45-.35-2.13-.21-.57-.58-1.07-1.07-1.43-.48-.34-1.08-.52-1.79-.51-.74,0-1.36.17-1.85.51-.5.34-.89.83-1.11,1.4-.26.66-.38,1.37-.37,2.07-.01.72.11,1.45.36,2.13.21.57.58,1.07,1.07,1.43.48.34,1.07.52,1.79.51.74,0,1.35-.17,1.85-.5h0Z"/>
        <path class="cls-1" d="M21.57,121.05h4.96v1.25h-6.4v-10.11h1.43v8.86Z"/>
        <path class="cls-1" d="M29.22,121.94c-.61-.35-1.09-.87-1.39-1.5-.31-.68-.46-1.42-.45-2.17v-6.08h1.44v5.76c0,2.19.95,3.29,2.84,3.29.97,0,1.67-.28,2.1-.83s.64-1.34.65-2.36v-5.85h1.44v6.02c0,.99-.19,1.8-.56,2.44-.35.61-.88,1.1-1.52,1.4-.69.3-1.44.45-2.19.44-.93,0-1.71-.18-2.34-.55Z"/>
        <path class="cls-1" d="M45.58,112.19v1.25h-3.49v8.86h-1.43v-8.86h-3.51v-1.25h8.44Z"/>
        <path class="cls-1" d="M47.14,122.3v-10.11h1.44v10.11h-1.44Z"/>
        <path class="cls-1" d="M52.69,121.83c-.71-.44-1.27-1.09-1.6-1.85-.38-.87-.56-1.81-.54-2.76,0-1.16.22-2.13.65-2.91.4-.74,1-1.34,1.75-1.73.75-.38,1.58-.57,2.42-.56,1.01,0,1.87.22,2.57.66.71.44,1.26,1.09,1.6,1.85.38.87.56,1.81.54,2.76,0,1.17-.22,2.14-.65,2.92-.4.74-1,1.34-1.75,1.73-.75.38-1.58.57-2.42.56-1.01,0-1.87-.22-2.58-.66ZM57.12,120.77c.5-.35.88-.83,1.11-1.4.26-.66.38-1.37.37-2.07.01-.73-.1-1.45-.35-2.13-.21-.57-.58-1.07-1.07-1.43-.48-.34-1.08-.52-1.79-.51-.74,0-1.36.17-1.85.51-.5.34-.88.83-1.1,1.39-.26.66-.38,1.37-.37,2.07-.01.72.11,1.44.35,2.13.21.57.58,1.07,1.07,1.43.48.34,1.08.52,1.79.51.74,0,1.35-.17,1.84-.51h0Z"/>
        <path class="cls-1" d="M70.37,112.19v10.11h-1.59l-4.45-6.55-.2-.3c-.06-.1-.12-.2-.19-.3-.11-.16-.2-.3-.28-.44s-.15-.27-.21-.41v7.99h-1.37v-10.11h1.51l4.57,6.69c.04.06.13.19.26.38s.25.37.34.53c.09.15.17.3.23.46v-8.07h1.37Z"/>
        <path class="cls-1" d="M73.74,122.19c-.59-.19-1.13-.48-1.62-.85l.69-1.03c.42.33.9.57,1.41.73.48.15.99.24,1.49.24.75,0,1.32-.13,1.71-.4s.58-.68.58-1.23c.01-.28-.06-.56-.21-.79-.18-.24-.42-.44-.69-.57-.44-.22-.9-.41-1.37-.57l-.26-.09c-.55-.18-1.08-.41-1.59-.68-.39-.21-.73-.51-.98-.88-.26-.41-.39-.89-.37-1.37-.02-.53.15-1.05.47-1.47.33-.41.76-.72,1.26-.9.53-.2,1.1-.3,1.67-.3.6,0,1.19.08,1.76.23.58.17,1.13.43,1.63.76l-.66,1.03c-.41-.27-.86-.48-1.32-.63-.47-.14-.95-.2-1.44-.19-.48-.02-.96.1-1.37.34-.36.23-.55.58-.55,1.06,0,.23.06.46.18.65.16.22.38.41.62.53.4.21.81.39,1.24.53l.26.09c.57.19,1.13.41,1.67.68.43.22.79.54,1.08.93.3.4.45.92.45,1.55.02.57-.14,1.13-.45,1.6-.32.45-.78.79-1.3.98-.64.24-1.32.35-2,.34-.68,0-1.36-.1-2.01-.31Z"/>
        <path class="cls-1" d="M93.08,116.7v4.93c-.56.27-1.14.49-1.73.65-.62.15-1.25.22-1.88.21-1.11,0-2.03-.22-2.75-.67-.71-.43-1.26-1.08-1.58-1.84-.35-.86-.52-1.79-.5-2.71,0-1.21.22-2.2.66-2.99.39-.74,1-1.34,1.75-1.72.75-.37,1.58-.56,2.41-.55.61,0,1.22.07,1.81.23.55.16,1.07.39,1.56.69l-.62,1.09c-.37-.23-.77-.42-1.19-.55-.47-.15-.95-.22-1.44-.21-1.17,0-2.04.35-2.58,1.06-.55.71-.82,1.67-.82,2.89,0,1.29.26,2.29.78,2.99.52.7,1.37,1.05,2.54,1.06.74,0,1.46-.14,2.15-.4v-2.94h-2.6l.16-1.22h3.87Z"/>
        <path class="cls-1" d="M102.75,122.21v.09h-1.65l-2.91-3.95h-1.5v3.95h-1.44v-10.11h3.29c.69-.02,1.37.11,2,.38.51.22.94.58,1.23,1.04.28.47.43,1.01.41,1.56,0,.46-.09.91-.27,1.32-.19.41-.47.78-.82,1.06-.4.31-.86.53-1.36.65l3.01,4.01ZM96.68,117.17h1.64c.78,0,1.37-.17,1.77-.51s.6-.81.6-1.43-.19-1.05-.55-1.36-.91-.47-1.63-.47h-1.82v3.76Z"/>
        <path class="cls-1" d="M105.64,121.83c-.71-.44-1.26-1.09-1.6-1.85-.38-.87-.56-1.81-.54-2.76,0-1.16.22-2.13.65-2.91.4-.74,1-1.34,1.75-1.73.75-.38,1.58-.57,2.42-.56,1.01,0,1.87.22,2.57.66.71.44,1.26,1.09,1.6,1.85.37.87.56,1.81.54,2.76,0,1.17-.22,2.14-.66,2.92-.39.74-1,1.34-1.73,1.73-.75.38-1.58.57-2.42.56-1.01,0-1.87-.22-2.58-.66ZM110.06,120.77c.5-.35.88-.83,1.1-1.4.26-.66.38-1.37.37-2.07.01-.73-.1-1.45-.35-2.13-.21-.57-.58-1.07-1.07-1.43-.48-.34-1.08-.52-1.79-.51-.74,0-1.36.17-1.85.51-.5.35-.88.83-1.11,1.4-.26.66-.38,1.37-.37,2.07-.01.72.11,1.45.35,2.13.21.57.58,1.07,1.07,1.43.48.34,1.08.51,1.79.51.74,0,1.36-.17,1.85-.5h0Z"/>
        <path class="cls-1" d="M116.6,121.94c-.61-.35-1.09-.87-1.39-1.5-.31-.68-.46-1.42-.45-2.17v-6.08h1.43v5.76c0,2.19.95,3.29,2.84,3.29.97,0,1.67-.28,2.1-.83s.64-1.34.65-2.36v-5.85h1.44v6.02c0,.99-.19,1.8-.56,2.44-.35.61-.88,1.1-1.52,1.4-.69.3-1.44.45-2.19.44-.93,0-1.71-.18-2.34-.55Z"/>
        <path class="cls-1" d="M130.94,112.58c.52.22.96.6,1.26,1.08.29.49.43,1.05.42,1.61,0,.58-.14,1.16-.43,1.67-.31.52-.76.93-1.3,1.19-.58.3-1.29.44-2.13.44h-1.81v3.73h-1.44v-10.11h3.37c.7-.02,1.4.11,2.05.39ZM130.51,116.83c.41-.35.62-.85.62-1.5s-.19-1.1-.57-1.43c-.38-.33-.94-.49-1.69-.49h-1.9v3.95h1.7c.82,0,1.44-.18,1.85-.53h0Z"/>
      </g>
      <g>
        <path class="cls-2" d="M105.2,96.61v3.66h-2.52v4.56h-4.47v-4.56h-9.29v-2.07l5.66-14.33h4.98l-5.44,12.75h4.08l.87-5.18h3.59v5.18h2.52Z"/>
        <path class="cls-2" d="M41.44,87.57h-9.55v5.24h8.25l-.53,3.69h-7.72v8.32h-4.46v-20.96h14.02v3.72Z"/>
        <path class="cls-2" d="M53.66,83.86l7.54,20.71v.26h-4.89l-1.68-5.01h-7.77l-1.65,5.01h-4.81v-.26l7.54-20.71h5.72ZM48.1,96.12h5.31l-2.68-7.99-2.62,7.99Z"/>
        <path class="cls-2" d="M80.55,104.57v.26h-5.13l-5.26-7.64h-1.77v7.64h-4.46v-20.97h7.02c1.85,0,3.4.29,4.64.86,1.24.57,2.16,1.35,2.77,2.33.61,1.01.93,2.17.91,3.35,0,1.47-.37,2.73-1.1,3.8-.73,1.07-1.81,1.86-3.23,2.38l5.63,7.99ZM68.38,93.73h2.02c1.32,0,2.34-.25,3.06-.74.72-.5,1.07-1.32,1.07-2.46,0-.99-.32-1.74-.96-2.23-.64-.5-1.53-.74-2.68-.74h-2.51v6.18Z"/>
      </g>
      <g>
        <rect class="cls-1" x="41.85" y="0" width="48.92" height="6.99" rx="3.49" ry="3.49"/>
        <path class="cls-1" d="M90.77,16.45v50.95c0,1.37-1.11,2.48-2.48,2.48h-2.03c-1.37,0-2.48-1.11-2.48-2.48h0V23.44c0-1.37-1.11-2.48-2.48-2.48h-36.97c-1.37,0-2.48-1.11-2.48-2.48v-2.03c0-1.37,1.11-2.48,2.48-2.48h43.96c1.37,0,2.48,1.11,2.48,2.48Z"/>
        <rect class="cls-2" x="41.85" y="24.46" width="6.99" height="6.99" rx="3.49" ry="3.49"/>
        <path class="cls-2" d="M76.79,37.42v29.98c0,1.37-1.11,2.48-2.48,2.48h-2.03c-1.37,0-2.48-1.11-2.48-2.48v-23c0-1.37-1.11-2.48-2.48-2.48h-23c-1.37,0-2.48-1.11-2.48-2.48v-2.03c0-1.37,1.11-2.48,2.48-2.48h29.98c1.37,0,2.48,1.11,2.48,2.48Z"/>
        <path class="cls-2" d="M65.85,50.83l-18.33,18.33c-.46.46-1.09.73-1.75.73h-1.44c-1.37,0-2.48-1.11-2.48-2.48h0v-1.44c0-.66.26-1.29.73-1.75l18.33-18.33c.97-.97,2.53-.97,3.5,0h0s1.44,1.44,1.44,1.44c.97.96.98,2.53.02,3.5,0,0,0,0-.02,0Z"/>
      </g>
    </g>
  </g>
</svg>